<mxfile host="app.diagrams.net" modified="2022-09-01T19:22:15.136Z" agent="5.0 (Windows NT 10.0; Win64; x64) AppleWebKit/537.36 (KHTML, like Gecko) Chrome/104.0.0.0 Safari/537.36" etag="X5xaYQML9qjA30w37aAk" version="20.2.7" type="github" pages="2">
  <diagram id="iO8I31M1HO7iEmBMHilC" name="Cadastro Usuario">
    <mxGraphModel dx="813" dy="1604" grid="1" gridSize="10" guides="1" tooltips="1" connect="1" arrows="1" fold="1" page="1" pageScale="1" pageWidth="827" pageHeight="1169" math="0" shadow="0">
      <root>
        <mxCell id="0" />
        <mxCell id="1" parent="0" />
        <mxCell id="SkQQ3skMiEvJpPwn65Zl-1" value="Usuario" style="swimlane;horizontal=0;fontSize=12;" parent="1" vertex="1">
          <mxGeometry x="40" y="-1080" width="760" height="120" as="geometry">
            <mxRectangle x="40" y="-1080" width="40" height="150" as="alternateBounds" />
          </mxGeometry>
        </mxCell>
        <mxCell id="SkQQ3skMiEvJpPwn65Zl-11" style="edgeStyle=orthogonalEdgeStyle;rounded=0;orthogonalLoop=1;jettySize=auto;html=1;exitX=1;exitY=0.5;exitDx=0;exitDy=0;entryX=0;entryY=0.5;entryDx=0;entryDy=0;" parent="SkQQ3skMiEvJpPwn65Zl-1" source="SkQQ3skMiEvJpPwn65Zl-7" target="SkQQ3skMiEvJpPwn65Zl-10" edge="1">
          <mxGeometry relative="1" as="geometry" />
        </mxCell>
        <mxCell id="SkQQ3skMiEvJpPwn65Zl-7" value="" style="ellipse;whiteSpace=wrap;html=1;aspect=fixed;" parent="SkQQ3skMiEvJpPwn65Zl-1" vertex="1">
          <mxGeometry x="40" y="40" width="40" height="40" as="geometry" />
        </mxCell>
        <mxCell id="SkQQ3skMiEvJpPwn65Zl-10" value="Cadsatro" style="rounded=1;whiteSpace=wrap;html=1;" parent="SkQQ3skMiEvJpPwn65Zl-1" vertex="1">
          <mxGeometry x="120" y="40" width="80" height="40" as="geometry" />
        </mxCell>
        <mxCell id="SkQQ3skMiEvJpPwn65Zl-13" value="Inserir dados" style="rounded=1;whiteSpace=wrap;html=1;" parent="SkQQ3skMiEvJpPwn65Zl-1" vertex="1">
          <mxGeometry x="240" y="40" width="80" height="40" as="geometry" />
        </mxCell>
        <mxCell id="SkQQ3skMiEvJpPwn65Zl-31" value="" style="ellipse;whiteSpace=wrap;html=1;aspect=fixed;strokeWidth=3;" parent="SkQQ3skMiEvJpPwn65Zl-1" vertex="1">
          <mxGeometry x="680" y="40" width="40" height="40" as="geometry" />
        </mxCell>
        <mxCell id="mfJ96QXMFLoJJJCufQio-4" style="edgeStyle=orthogonalEdgeStyle;rounded=0;orthogonalLoop=1;jettySize=auto;html=1;entryX=0;entryY=0.5;entryDx=0;entryDy=0;" edge="1" parent="SkQQ3skMiEvJpPwn65Zl-1" source="mfJ96QXMFLoJJJCufQio-3" target="SkQQ3skMiEvJpPwn65Zl-31">
          <mxGeometry relative="1" as="geometry" />
        </mxCell>
        <mxCell id="mfJ96QXMFLoJJJCufQio-3" value="&lt;font style=&quot;font-size: 12px;&quot;&gt;Recebe mensagem de confirmacao na plataforma&lt;/font&gt;" style="rounded=1;whiteSpace=wrap;html=1;fontSize=12;" vertex="1" parent="SkQQ3skMiEvJpPwn65Zl-1">
          <mxGeometry x="560" y="25" width="80" height="70" as="geometry" />
        </mxCell>
        <mxCell id="cVY05z9_XP9NH_K0-ey9-1" value="nao aceito ou dados invalidos" style="text;html=1;strokeColor=none;fillColor=none;align=center;verticalAlign=middle;whiteSpace=wrap;rounded=0;fontSize=10;rotation=-90;" vertex="1" parent="SkQQ3skMiEvJpPwn65Zl-1">
          <mxGeometry x="300" y="90" width="130" height="30" as="geometry" />
        </mxCell>
        <mxCell id="SkQQ3skMiEvJpPwn65Zl-4" value="Empresa" style="swimlane;horizontal=0;" parent="1" vertex="1">
          <mxGeometry x="40" y="-960" width="760" height="120" as="geometry">
            <mxRectangle x="40" y="-1120" width="40" height="150" as="alternateBounds" />
          </mxGeometry>
        </mxCell>
        <mxCell id="SkQQ3skMiEvJpPwn65Zl-20" style="edgeStyle=orthogonalEdgeStyle;rounded=0;orthogonalLoop=1;jettySize=auto;html=1;entryX=0;entryY=0.5;entryDx=0;entryDy=0;" parent="SkQQ3skMiEvJpPwn65Zl-4" source="SkQQ3skMiEvJpPwn65Zl-14" target="SkQQ3skMiEvJpPwn65Zl-19" edge="1">
          <mxGeometry relative="1" as="geometry" />
        </mxCell>
        <mxCell id="SkQQ3skMiEvJpPwn65Zl-14" value="Verifica dados" style="rounded=1;whiteSpace=wrap;html=1;" parent="SkQQ3skMiEvJpPwn65Zl-4" vertex="1">
          <mxGeometry x="240" y="40" width="80" height="40" as="geometry" />
        </mxCell>
        <mxCell id="SkQQ3skMiEvJpPwn65Zl-19" value="" style="rhombus;whiteSpace=wrap;html=1;" parent="SkQQ3skMiEvJpPwn65Zl-4" vertex="1">
          <mxGeometry x="360" y="40" width="40" height="40" as="geometry" />
        </mxCell>
        <mxCell id="SkQQ3skMiEvJpPwn65Zl-25" value="dados aceitos" style="text;html=1;strokeColor=none;fillColor=none;align=center;verticalAlign=middle;whiteSpace=wrap;rounded=0;fontSize=10;" parent="SkQQ3skMiEvJpPwn65Zl-4" vertex="1">
          <mxGeometry x="400" y="40" width="30" height="20" as="geometry" />
        </mxCell>
        <mxCell id="SkQQ3skMiEvJpPwn65Zl-30" value="Cadastra Usuario" style="rounded=1;whiteSpace=wrap;html=1;" parent="SkQQ3skMiEvJpPwn65Zl-4" vertex="1">
          <mxGeometry x="440" y="40" width="80" height="40" as="geometry" />
        </mxCell>
        <mxCell id="mfJ96QXMFLoJJJCufQio-1" value="Envia mensagem de confirmacao" style="rounded=1;whiteSpace=wrap;html=1;fontSize=12;" vertex="1" parent="SkQQ3skMiEvJpPwn65Zl-4">
          <mxGeometry x="560" y="40" width="80" height="40" as="geometry" />
        </mxCell>
        <mxCell id="SkQQ3skMiEvJpPwn65Zl-6" value="Cadastro de Usuario" style="text;html=1;strokeColor=none;fillColor=none;align=center;verticalAlign=middle;whiteSpace=wrap;rounded=0;fontSize=24;fontStyle=1" parent="1" vertex="1">
          <mxGeometry x="272" y="-1160" width="296" height="40" as="geometry" />
        </mxCell>
        <mxCell id="SkQQ3skMiEvJpPwn65Zl-12" style="edgeStyle=orthogonalEdgeStyle;rounded=0;orthogonalLoop=1;jettySize=auto;html=1;" parent="1" source="SkQQ3skMiEvJpPwn65Zl-10" edge="1">
          <mxGeometry relative="1" as="geometry">
            <mxPoint x="280" y="-1020" as="targetPoint" />
          </mxGeometry>
        </mxCell>
        <mxCell id="SkQQ3skMiEvJpPwn65Zl-16" style="edgeStyle=orthogonalEdgeStyle;rounded=0;orthogonalLoop=1;jettySize=auto;html=1;" parent="1" source="SkQQ3skMiEvJpPwn65Zl-13" edge="1">
          <mxGeometry relative="1" as="geometry">
            <mxPoint x="320" y="-920" as="targetPoint" />
            <Array as="points">
              <mxPoint x="320" y="-930" />
              <mxPoint x="320" y="-930" />
            </Array>
          </mxGeometry>
        </mxCell>
        <mxCell id="SkQQ3skMiEvJpPwn65Zl-22" style="edgeStyle=orthogonalEdgeStyle;rounded=0;orthogonalLoop=1;jettySize=auto;html=1;" parent="1" source="SkQQ3skMiEvJpPwn65Zl-19" target="SkQQ3skMiEvJpPwn65Zl-10" edge="1">
          <mxGeometry relative="1" as="geometry">
            <mxPoint x="420" y="-1050" as="targetPoint" />
            <Array as="points">
              <mxPoint x="420" y="-1060" />
              <mxPoint x="200" y="-1060" />
            </Array>
          </mxGeometry>
        </mxCell>
        <mxCell id="SkQQ3skMiEvJpPwn65Zl-21" style="edgeStyle=orthogonalEdgeStyle;rounded=0;orthogonalLoop=1;jettySize=auto;html=1;" parent="1" source="SkQQ3skMiEvJpPwn65Zl-19" edge="1">
          <mxGeometry relative="1" as="geometry">
            <mxPoint x="480" y="-900" as="targetPoint" />
          </mxGeometry>
        </mxCell>
        <mxCell id="SkQQ3skMiEvJpPwn65Zl-40" style="edgeStyle=orthogonalEdgeStyle;rounded=0;orthogonalLoop=1;jettySize=auto;html=1;" parent="1" source="SkQQ3skMiEvJpPwn65Zl-30" edge="1">
          <mxGeometry relative="1" as="geometry">
            <mxPoint x="600" y="-900" as="targetPoint" />
          </mxGeometry>
        </mxCell>
        <mxCell id="mfJ96QXMFLoJJJCufQio-2" style="edgeStyle=orthogonalEdgeStyle;rounded=0;orthogonalLoop=1;jettySize=auto;html=1;entryX=0.5;entryY=1;entryDx=0;entryDy=0;" edge="1" parent="1" source="mfJ96QXMFLoJJJCufQio-1" target="mfJ96QXMFLoJJJCufQio-3">
          <mxGeometry relative="1" as="geometry">
            <mxPoint x="640" y="-980" as="targetPoint" />
          </mxGeometry>
        </mxCell>
      </root>
    </mxGraphModel>
  </diagram>
  <diagram id="ekUe22iW17muiKG_mJho" name="Cadastro Especialista">
    <mxGraphModel dx="981" dy="1695" grid="1" gridSize="10" guides="1" tooltips="1" connect="1" arrows="1" fold="1" page="1" pageScale="1" pageWidth="827" pageHeight="1169" math="0" shadow="0">
      <root>
        <mxCell id="0" />
        <mxCell id="1" parent="0" />
        <mxCell id="Z2DAetVbfxJEDl6Q6rtn-1" value="Especialista" style="swimlane;horizontal=0;fontSize=12;" parent="1" vertex="1">
          <mxGeometry x="40" y="-1080" width="840" height="120" as="geometry">
            <mxRectangle x="40" y="-1120" width="40" height="150" as="alternateBounds" />
          </mxGeometry>
        </mxCell>
        <mxCell id="Z2DAetVbfxJEDl6Q6rtn-2" style="edgeStyle=orthogonalEdgeStyle;rounded=0;orthogonalLoop=1;jettySize=auto;html=1;exitX=1;exitY=0.5;exitDx=0;exitDy=0;entryX=0;entryY=0.5;entryDx=0;entryDy=0;" parent="Z2DAetVbfxJEDl6Q6rtn-1" source="Z2DAetVbfxJEDl6Q6rtn-3" target="Z2DAetVbfxJEDl6Q6rtn-4" edge="1">
          <mxGeometry relative="1" as="geometry" />
        </mxCell>
        <mxCell id="Z2DAetVbfxJEDl6Q6rtn-3" value="" style="ellipse;whiteSpace=wrap;html=1;aspect=fixed;" parent="Z2DAetVbfxJEDl6Q6rtn-1" vertex="1">
          <mxGeometry x="40" y="40" width="40" height="40" as="geometry" />
        </mxCell>
        <mxCell id="Z2DAetVbfxJEDl6Q6rtn-15" value="" style="edgeStyle=orthogonalEdgeStyle;rounded=0;orthogonalLoop=1;jettySize=auto;html=1;" parent="Z2DAetVbfxJEDl6Q6rtn-1" source="Z2DAetVbfxJEDl6Q6rtn-4" target="Z2DAetVbfxJEDl6Q6rtn-5" edge="1">
          <mxGeometry relative="1" as="geometry" />
        </mxCell>
        <mxCell id="Z2DAetVbfxJEDl6Q6rtn-4" value="Cadsatro" style="rounded=1;whiteSpace=wrap;html=1;" parent="Z2DAetVbfxJEDl6Q6rtn-1" vertex="1">
          <mxGeometry x="120" y="40" width="80" height="40" as="geometry" />
        </mxCell>
        <mxCell id="Z2DAetVbfxJEDl6Q6rtn-5" value="CV" style="rounded=1;whiteSpace=wrap;html=1;" parent="Z2DAetVbfxJEDl6Q6rtn-1" vertex="1">
          <mxGeometry x="240" y="40" width="80" height="40" as="geometry" />
        </mxCell>
        <mxCell id="Z2DAetVbfxJEDl6Q6rtn-13" value="" style="ellipse;whiteSpace=wrap;html=1;aspect=fixed;strokeWidth=3;" parent="Z2DAetVbfxJEDl6Q6rtn-1" vertex="1">
          <mxGeometry x="760" y="40" width="40" height="40" as="geometry" />
        </mxCell>
        <mxCell id="Z2DAetVbfxJEDl6Q6rtn-19" style="edgeStyle=orthogonalEdgeStyle;rounded=0;orthogonalLoop=1;jettySize=auto;html=1;entryX=0;entryY=0.5;entryDx=0;entryDy=0;" parent="Z2DAetVbfxJEDl6Q6rtn-1" target="Z2DAetVbfxJEDl6Q6rtn-13" edge="1">
          <mxGeometry relative="1" as="geometry">
            <mxPoint x="720" y="60" as="sourcePoint" />
          </mxGeometry>
        </mxCell>
        <mxCell id="8R3pxQQgkypk3rXiBYMO-2" value="nao aceito ou dados invalidos" style="text;html=1;strokeColor=none;fillColor=none;align=center;verticalAlign=middle;whiteSpace=wrap;rounded=0;fontSize=10;rotation=-90;" parent="Z2DAetVbfxJEDl6Q6rtn-1" vertex="1">
          <mxGeometry x="380" y="90" width="130" height="30" as="geometry" />
        </mxCell>
        <mxCell id="er_boTZ6szhresVVtZ-C-2" value="Recebe mensagem por e-mail" style="rounded=1;whiteSpace=wrap;html=1;" vertex="1" parent="Z2DAetVbfxJEDl6Q6rtn-1">
          <mxGeometry x="640" y="40" width="80" height="40" as="geometry" />
        </mxCell>
        <mxCell id="Z2DAetVbfxJEDl6Q6rtn-6" value="Empresa" style="swimlane;horizontal=0;" parent="1" vertex="1">
          <mxGeometry x="40" y="-960" width="840" height="120" as="geometry">
            <mxRectangle x="40" y="-1120" width="40" height="150" as="alternateBounds" />
          </mxGeometry>
        </mxCell>
        <mxCell id="Z2DAetVbfxJEDl6Q6rtn-24" style="edgeStyle=orthogonalEdgeStyle;rounded=0;orthogonalLoop=1;jettySize=auto;html=1;" parent="Z2DAetVbfxJEDl6Q6rtn-6" source="Z2DAetVbfxJEDl6Q6rtn-8" target="Z2DAetVbfxJEDl6Q6rtn-23" edge="1">
          <mxGeometry relative="1" as="geometry" />
        </mxCell>
        <mxCell id="Z2DAetVbfxJEDl6Q6rtn-8" value="Avaliação do CV" style="rounded=1;whiteSpace=wrap;html=1;" parent="Z2DAetVbfxJEDl6Q6rtn-6" vertex="1">
          <mxGeometry x="240" y="40" width="80" height="40" as="geometry" />
        </mxCell>
        <mxCell id="Z2DAetVbfxJEDl6Q6rtn-29" style="edgeStyle=orthogonalEdgeStyle;rounded=0;orthogonalLoop=1;jettySize=auto;html=1;entryX=0;entryY=0.5;entryDx=0;entryDy=0;" parent="Z2DAetVbfxJEDl6Q6rtn-6" source="Z2DAetVbfxJEDl6Q6rtn-9" target="Z2DAetVbfxJEDl6Q6rtn-12" edge="1">
          <mxGeometry relative="1" as="geometry" />
        </mxCell>
        <mxCell id="Z2DAetVbfxJEDl6Q6rtn-9" value="" style="rhombus;whiteSpace=wrap;html=1;" parent="Z2DAetVbfxJEDl6Q6rtn-6" vertex="1">
          <mxGeometry x="440" y="40" width="40" height="40" as="geometry" />
        </mxCell>
        <mxCell id="CrPNqB8TyOUg1O0TvXH_-3" style="edgeStyle=orthogonalEdgeStyle;rounded=0;orthogonalLoop=1;jettySize=auto;html=1;entryX=0;entryY=0.5;entryDx=0;entryDy=0;fontSize=12;" edge="1" parent="Z2DAetVbfxJEDl6Q6rtn-6" source="Z2DAetVbfxJEDl6Q6rtn-12" target="CrPNqB8TyOUg1O0TvXH_-1">
          <mxGeometry relative="1" as="geometry" />
        </mxCell>
        <mxCell id="Z2DAetVbfxJEDl6Q6rtn-12" value="Cadastra Especialista" style="rounded=1;whiteSpace=wrap;html=1;" parent="Z2DAetVbfxJEDl6Q6rtn-6" vertex="1">
          <mxGeometry x="520" y="40" width="80" height="40" as="geometry" />
        </mxCell>
        <mxCell id="Z2DAetVbfxJEDl6Q6rtn-25" style="edgeStyle=orthogonalEdgeStyle;rounded=0;orthogonalLoop=1;jettySize=auto;html=1;" parent="Z2DAetVbfxJEDl6Q6rtn-6" source="Z2DAetVbfxJEDl6Q6rtn-23" target="Z2DAetVbfxJEDl6Q6rtn-9" edge="1">
          <mxGeometry relative="1" as="geometry" />
        </mxCell>
        <mxCell id="Z2DAetVbfxJEDl6Q6rtn-23" value="" style="sketch=0;pointerEvents=1;shadow=0;dashed=0;html=1;strokeColor=none;fillColor=#505050;labelPosition=center;verticalLabelPosition=bottom;verticalAlign=top;outlineConnect=0;align=center;shape=mxgraph.office.concepts.clock;labelBackgroundColor=#000000;labelBorderColor=default;" parent="Z2DAetVbfxJEDl6Q6rtn-6" vertex="1">
          <mxGeometry x="360" y="40" width="40" height="40" as="geometry" />
        </mxCell>
        <mxCell id="Z2DAetVbfxJEDl6Q6rtn-26" value="3 dias&amp;nbsp;" style="text;html=1;strokeColor=none;fillColor=none;align=center;verticalAlign=middle;whiteSpace=wrap;rounded=0;fontSize=10;" parent="Z2DAetVbfxJEDl6Q6rtn-6" vertex="1">
          <mxGeometry x="360" y="80" width="40" height="20" as="geometry" />
        </mxCell>
        <mxCell id="8R3pxQQgkypk3rXiBYMO-1" value="Aceito" style="text;html=1;strokeColor=none;fillColor=none;align=center;verticalAlign=middle;whiteSpace=wrap;rounded=0;fontSize=10;" parent="Z2DAetVbfxJEDl6Q6rtn-6" vertex="1">
          <mxGeometry x="480" y="30" width="40" height="30" as="geometry" />
        </mxCell>
        <mxCell id="CrPNqB8TyOUg1O0TvXH_-1" value="Envia mensagem de aprovacao e regras&amp;nbsp;" style="rounded=1;whiteSpace=wrap;html=1;" vertex="1" parent="Z2DAetVbfxJEDl6Q6rtn-6">
          <mxGeometry x="640" y="30" width="80" height="60" as="geometry" />
        </mxCell>
        <mxCell id="Z2DAetVbfxJEDl6Q6rtn-14" value="Cadastro de Especialista" style="text;html=1;strokeColor=none;fillColor=none;align=center;verticalAlign=middle;whiteSpace=wrap;rounded=0;fontSize=21;fontStyle=1" parent="1" vertex="1">
          <mxGeometry x="285" y="-1160" width="270" height="40" as="geometry" />
        </mxCell>
        <mxCell id="Z2DAetVbfxJEDl6Q6rtn-16" value="" style="edgeStyle=orthogonalEdgeStyle;rounded=0;orthogonalLoop=1;jettySize=auto;html=1;" parent="1" source="Z2DAetVbfxJEDl6Q6rtn-5" target="Z2DAetVbfxJEDl6Q6rtn-8" edge="1">
          <mxGeometry relative="1" as="geometry" />
        </mxCell>
        <mxCell id="Z2DAetVbfxJEDl6Q6rtn-31" style="edgeStyle=orthogonalEdgeStyle;rounded=0;orthogonalLoop=1;jettySize=auto;html=1;entryX=0.5;entryY=0;entryDx=0;entryDy=0;" parent="1" source="Z2DAetVbfxJEDl6Q6rtn-9" target="Z2DAetVbfxJEDl6Q6rtn-4" edge="1">
          <mxGeometry relative="1" as="geometry">
            <Array as="points">
              <mxPoint x="500" y="-1060" />
              <mxPoint x="200" y="-1060" />
            </Array>
          </mxGeometry>
        </mxCell>
        <mxCell id="er_boTZ6szhresVVtZ-C-3" style="edgeStyle=orthogonalEdgeStyle;rounded=0;orthogonalLoop=1;jettySize=auto;html=1;entryX=0.5;entryY=1;entryDx=0;entryDy=0;fontSize=12;" edge="1" parent="1" source="CrPNqB8TyOUg1O0TvXH_-1" target="er_boTZ6szhresVVtZ-C-2">
          <mxGeometry relative="1" as="geometry" />
        </mxCell>
      </root>
    </mxGraphModel>
  </diagram>
</mxfile>
